<?xml version="1.0" encoding="UTF-8" standalone="no"?>
<!-- Created with Inkscape (http://www.inkscape.org/) -->

<svg
   width="27.754686mm"
   height="11.15999mm"
   viewBox="0 0 27.754686 11.15999"
   version="1.1"
   id="svg5"
   inkscape:export-filename="Mindhub-logo.svg"
   inkscape:export-xdpi="96"
   inkscape:export-ydpi="96"
   inkscape:version="1.2 (dc2aedaf03, 2022-05-15)"
   sodipodi:docname="mindhub-logo.svg"
   xmlns:inkscape="http://www.inkscape.org/namespaces/inkscape"
   xmlns:sodipodi="http://sodipodi.sourceforge.net/DTD/sodipodi-0.dtd"
   xmlns:xlink="http://www.w3.org/1999/xlink"
   xmlns="http://www.w3.org/2000/svg"
   xmlns:svg="http://www.w3.org/2000/svg">
  <sodipodi:namedview
     id="namedview7"
     pagecolor="#ffffff"
     bordercolor="#000000"
     borderopacity="0.25"
     inkscape:showpageshadow="2"
     inkscape:pageopacity="0.0"
     inkscape:pagecheckerboard="0"
     inkscape:deskcolor="#d1d1d1"
     inkscape:document-units="mm"
     showgrid="false"
     inkscape:zoom="4.2179991"
     inkscape:cx="18.49218"
     inkscape:cy="18.966339"
     inkscape:window-width="1920"
     inkscape:window-height="1017"
     inkscape:window-x="-8"
     inkscape:window-y="-8"
     inkscape:window-maximized="1"
     inkscape:current-layer="layer1" />
  <defs
     id="defs2">
    <linearGradient
       inkscape:collect="always"
       id="linearGradient3506">
      <stop
         style="stop-color:#ffa3f5;stop-opacity:1;"
         offset="0"
         id="stop3502" />
      <stop
         style="stop-color:#eb04db;stop-opacity:1;"
         offset="1"
         id="stop3504" />
    </linearGradient>
    <rect
       x="200.49783"
       y="377.52603"
       width="292.70004"
       height="170.65787"
       id="rect186" />
    <radialGradient
       inkscape:collect="always"
       xlink:href="#linearGradient3506"
       id="radialGradient3508"
       cx="52.331856"
       cy="128.28067"
       fx="52.331856"
       fy="128.28067"
       r="3.6366549"
       gradientTransform="matrix(0.99999994,0,0,0.94898366,-0.20385997,6.1278773)"
       gradientUnits="userSpaceOnUse" />
  </defs>
  <g
     inkscape:label="Layer 1"
     inkscape:groupmode="layer"
     id="layer1"
     transform="translate(-44.733823,-123.19327)">
    <path
       d="M 45.233823,133.85326 V 123.69327 H 47.4916 c 0,5.08 -0.07056,5.5625 -0.07056,10.15999 z"
       style="font-weight:900;font-size:53.3333px;font-family:Orbitron;-inkscape-font-specification:'Orbitron Heavy';white-space:pre;fill:#ffffff;stroke:#000000;stroke-width:1;stroke-linecap:round;stroke-linejoin:round;paint-order:markers stroke fill"
       id="path1156"
       sodipodi:nodetypes="ccccc" />
    <path
       d="m 56.635786,133.85326 v -10.15999 h 2.257777 c 0,5.08 -0.07056,5.5625 -0.07056,10.15999 z"
       style="font-weight:900;font-size:53.3333px;font-family:Orbitron;-inkscape-font-specification:'Orbitron Heavy';white-space:pre;fill:#ffffff;stroke:#000000;stroke-width:1;stroke-linecap:round;stroke-linejoin:round;paint-order:markers stroke fill"
       id="path1156-6"
       sodipodi:nodetypes="ccccc" />
    <path
       d="m 48.946971,123.69327 3.143722,3.55189 3.129602,-3.55189 -0.0063,3.34433 -3.123297,3.62245 -3.137413,-3.60834 c 0,-0.47789 -0.0063,-2.9258 -0.0063,-3.35844 z"
       style="font-weight:900;font-size:53.3333px;font-family:Orbitron;-inkscape-font-specification:'Orbitron Heavy';white-space:pre;fill:url(#radialGradient3508);fill-opacity:1;stroke:#fec2fa;stroke-width:1;stroke-linecap:round;stroke-linejoin:round;stroke-opacity:1;paint-order:markers stroke fill"
       id="path1183"
       sodipodi:nodetypes="cccccccc" />
    <path
       d="m 61.82852,133.85326 v -10.15999 h 7.676438 q 0.564447,0 1.030111,0.28222 0.479779,0.28223 0.762,0.762 0.296333,0.46567 0.296333,1.04423 v 1.90499 q 0,0.18345 -0.02822,0.35278 -0.0141,0.15522 -0.07056,0.29633 0.211667,0.26812 0.352777,0.62089 0.14111,0.35278 0.14111,0.70556 v 2.10255 q 0,0.56445 -0.296331,1.04422 -0.282223,0.47978 -0.762,0.762 -0.465666,0.28222 -1.044223,0.28222 z m 2.187221,-2.20133 h 5.75733 q 0,0 0,0 0,0 0,0 v -1.86266 q 0,0 0,0 0,0 0,0 h -5.75733 q 0,0 0,0 0,0 0,0 v 1.86266 q 0,0 0,0 0,0 0,0 z m 0,-4.06399 h 5.362217 q 0,0 0,0 0,0 0,0 v -1.69334 q 0,0 0,0 0,0 0,0 h -5.362217 q 0,0 0,0 0,0 0,0 v 1.69334 q 0,0 0,0 0,0 0,0 z"
       style="font-weight:900;font-size:53.3333px;font-family:Orbitron;-inkscape-font-specification:'Orbitron Heavy';white-space:pre;fill:#ffffff;stroke:#000000;stroke-width:1;stroke-linecap:round;stroke-linejoin:round;paint-order:markers stroke fill"
       id="path1185" />
  </g>
</svg>
