<svg xmlns="http://www.w3.org/2000/svg" viewBox="0 0 100 100" id="credit-card"><path fill="#1a1a1a" d="M88.8 34.4H26.4c-3.4 0-6.2 2.8-6.2 6.2v6.8c0 .6.5 1.1 1.1 1.1h72.6c.6 0 1.1-.5 1.1-1.1v-6.8c0-3.5-2.8-6.2-6.2-6.2zm5.1 20.3H21.3c-.6 0-1.1.5-1.1 1.1v21.3c0 3.4 2.8 6.2 6.2 6.2h62.4c3.4 0 6.2-2.8 6.2-6.2V55.8c0-.6-.5-1.1-1.1-1.1zM40.5 72.3c0 .3-.3.6-.6.6h-9.4c-.3 0-.6-.3-.6-.6v-9.4c0-.3.3-.6.6-.6h9.4c.3 0 .6.3.6.6v9.4z"></path><path fill="#1a1a1a" d="M11.2 64.5h3.7c.4 0 .7-.3.7-.7v-25c0-5.1 4.1-9.2 9.2-9.2h54.3c.4 0 .7-.3.7-.7v-6.1c0-3.4-2.8-6.2-6.2-6.2H14.2c-5.1 0-9.2 4.1-9.2 9.2v32.4c0 3.5 2.8 6.3 6.2 6.3z"></path></svg>